<?xml version="1.0" encoding="UTF-8" standalone="no"?><svg width="220" height="179" viewBox="0 0 220 179" xmlns="http://www.w3.org/2000/svg"><title>logo</title><g id="Design" fill="none" fill-rule="evenodd"><g id="04_home-copy-4" transform="translate(-360 -17)"><g id="header" transform="translate(0 -45)"><g id="logo" transform="translate(360 62)"><path id="Path-122" fill="#FFF" d="M3.804 138.017l-1.3-68.591 56.336-7.827-5.863-18.566 29.24 4.118 6.497-32.76 22.743 22.684L132.9 6.905l4.223 32.237 31.304-11.082-7.813 18.128 58.496-7.062-1.948 70.953-56.238 9.03 8.138 17.038-32.195-5.223-4.987 35.038-22.267-23.17-20.339 27.24-5.637-31.729-31.628 14.973 6.71-20.86z"/><path d="M33.47 108.836l-8.567 1.203-1.63 6.085-5.85.82 8.65-30.92 6.31-.885 8.525 28.51-5.892.826-1.546-5.64zm-7.355-3.983l6.143-.86-3.01-11.209-3.133 12.069z" id="Fill-1" fill="#F05356"/><g id="Group-18" transform="translate(0 .091)" fill="#F05356"><path d="M43.753 113.159V83.453l9.361-1.314c5.892-.828 9.862 2.45 9.862 9.36v.843c0 4.593-1.964 7.945-5.14 9.823l4.972 8.32-6.31.884-3.97-7.11-3.008.422v7.668l-5.767.81zm5.767-24.954V99.16l2.883-.405c2.507-.351 4.848-1.775 4.848-5.694v-.843c0-4.087-2.257-4.782-4.848-4.418l-2.883.404z" id="Fill-2"/><path id="Fill-4" d="M83.288 83.51l-10.782 1.512v6.741l7.982-1.12V95.7l-7.982 1.12v6.741l10.782-1.512v5.562l-16.547 2.322V80.227l16.547-2.322z"/><path id="Fill-6" d="M107.654 104.19l-5.432.763-8.692-15.971v17.192l-5.767.808V77.276l5.433-.762 8.65 16.063V75.385l5.808-.816z"/><path d="M113.132 73.716l9.027-1.266c5.808-.815 9.779 1.24 9.779 6.718v.42c0 3.203-1.38 5.463-3.72 6.802 2.508.743 4.012 2.555 4.012 5.84v.38c0 5.479-3.97 8.69-9.779 9.505l-9.319 1.308V73.716zm9.32 11.25c1.88-.264 3.76-1.16 3.76-3.9v-.463c0-2.57-2.09-2.867-4.262-2.561l-3.05.428v6.994l3.551-.499zm-.21 11.658c2.215-.31 4.263-1.145 4.263-4.053v-.464c0-2.529-2.048-2.914-4.054-2.633l-3.551.499v7.12l3.342-.469z" id="Fill-8"/><path id="Fill-10" d="M153.295 73.685l-10.781 1.513v6.741l7.98-1.12v5.057l-7.98 1.12v6.742l10.78-1.513v5.562l-16.547 2.322V70.403l16.548-2.322z"/><path d="M157.77 97.158V67.452l9.36-1.313c5.892-.827 9.862 2.452 9.862 9.362v.842c0 4.593-1.964 7.944-5.14 9.823l4.973 8.318-6.31.886-3.97-7.112-3.008.423v7.669l-5.768.808zm5.767-24.952v10.956l2.882-.405c2.507-.352 4.848-1.776 4.848-5.696v-.842c0-4.087-2.257-4.782-4.848-4.418l-2.882.405z" id="Fill-12"/><path d="M200.48 75.954v5.394c0 6.067-4.052 10.808-9.903 11.63-5.808.814-9.862-2.79-9.862-8.857V73.966c0-6.067 4.054-10.85 9.862-11.664 5.767-.81 9.779 2.756 9.904 8.637l-5.767.81c0-3.16-1.63-4.238-4.053-3.898-2.59.364-4.137 1.93-4.137 5.89v9.776c0 3.034 1.546 4.25 4.053 3.898 2.132-.3 4.137-1.761 4.137-5.048v-.506l-4.095.575v-5.098l9.862-1.384z" id="Fill-14"/><path d="M86.118 178.582l-5.355-35.662-35.431 15.385 9.641-22.55L0 143.47V66.362l55.269-7.757-9.76-19.469 34.901 5.34 5.096-36.908 23.889 24.116L133.46.436l5.356 35.662 35.43-15.385-9.64 22.55 54.973-7.716v77.11l-55.27 7.755 9.76 19.47-34.9-5.34-5.097 36.908-23.889-24.117-24.065 31.25zm-.737-43.986l4.453 29.655 19.8-25.712 20.295 20.488 4.295-31.104 29.634 4.534-8.352-16.662 58.27-8.176V42.214l-58.546 8.215 7.95-18.59-28.983 12.583-4.452-29.654-19.802 25.71-20.294-20.486-4.295 31.103-29.633-4.534 8.351 16.661L5.803 71.4v65.405l58.545-8.215-7.95 18.592 28.983-12.585z" id="Fill-16"/></g></g></g></g></g></svg>