<?xml version="1.0" encoding="UTF-8" standalone="no"?>
<!DOCTYPE svg PUBLIC "-//W3C//DTD SVG 1.1//EN" "http://www.w3.org/Graphics/SVG/1.1/DTD/svg11.dtd">
<svg width="100%" height="100%" viewBox="0 0 2371 2063" version="1.1" xmlns="http://www.w3.org/2000/svg" xmlns:xlink="http://www.w3.org/1999/xlink" xml:space="preserve" xmlns:serif="http://www.serif.com/" style="fill-rule:evenodd;clip-rule:evenodd;stroke-miterlimit:2;">
    <g transform="matrix(1,0,0,1,-49.8652,-724.261)">
        <g transform="matrix(4.16667,0,0,4.16667,0,0)">
            <path d="M36.906,275.656L60.576,275.656C64.685,275.656 68.21,274.185 71.149,271.242C74.038,268.299 75.478,264.748 75.473,260.587C75.467,256.477 74.016,252.977 71.12,250.085C68.173,247.142 64.646,245.67 60.536,245.67L36.866,245.67L36.906,275.656ZM36.843,229.155L54.5,229.155C58.559,229.155 62.005,227.709 64.845,224.817C67.733,221.975 69.174,218.525 69.168,214.466C69.163,210.407 67.713,206.957 64.817,204.115C61.971,201.223 58.521,199.777 54.461,199.777L36.805,199.777L36.843,229.155ZM20.413,292.171L20.266,183.262L54.438,183.262C63.064,183.262 70.426,186.306 76.522,192.395C82.62,198.534 85.673,205.891 85.684,214.466C85.694,222.128 83.241,228.85 78.329,234.634C82.545,237.526 85.845,241.231 88.239,245.746C90.781,250.363 92.057,255.31 92.064,260.587C92.075,269.314 88.991,276.747 82.808,282.887C76.678,289.077 69.273,292.171 60.597,292.171L20.413,292.171Z" style="fill:white;fill-rule:nonzero;"/>
            <path d="M36.906,275.656L60.576,275.656C64.685,275.656 68.21,274.185 71.149,271.242C74.038,268.299 75.478,264.748 75.473,260.587C75.467,256.477 74.016,252.977 71.12,250.085C68.173,247.142 64.646,245.67 60.536,245.67L36.866,245.67L36.906,275.656ZM36.843,229.155L54.5,229.155C58.559,229.155 62.005,227.709 64.845,224.817C67.733,221.975 69.174,218.525 69.168,214.466C69.163,210.407 67.713,206.957 64.817,204.115C61.971,201.223 58.521,199.777 54.461,199.777L36.805,199.777L36.843,229.155ZM20.413,292.171L20.266,183.262L54.438,183.262C63.064,183.262 70.426,186.306 76.522,192.395C82.62,198.534 85.673,205.891 85.684,214.466C85.694,222.128 83.241,228.85 78.329,234.634C82.545,237.526 85.845,241.231 88.239,245.746C90.781,250.363 92.057,255.31 92.064,260.587C92.075,269.314 88.991,276.747 82.808,282.887C76.678,289.077 69.273,292.171 60.597,292.171L20.413,292.171Z" style="fill:none;stroke:white;stroke-width:7.42px;"/>
            <path d="M121.643,183.262L121.766,275.656L160.806,275.656L160.831,292.171L105.273,292.171L105.128,183.262L121.643,183.262Z" style="fill:white;fill-rule:nonzero;"/>
            <path d="M121.643,183.262L121.766,275.656L160.806,275.656L160.831,292.171L105.273,292.171L105.128,183.262L121.643,183.262Z" style="fill:none;stroke:white;stroke-width:7.42px;"/>
            <path d="M211.08,250.236L237.642,250.236L237.583,208.301L211.08,250.236ZM254.143,183.262L254.291,292.171L237.7,292.171L237.663,266.752L200.675,266.752L184.653,292.171L165.093,292.171L233.822,183.262L254.143,183.262Z" style="fill:white;fill-rule:nonzero;"/>
            <path d="M211.08,250.236L237.642,250.236L237.583,208.301L211.08,250.236ZM254.143,183.262L254.291,292.171L237.7,292.171L237.663,266.752L200.675,266.752L184.653,292.171L165.093,292.171L233.822,183.262L254.143,183.262Z" style="fill:none;stroke:white;stroke-width:7.42px;"/>
            <path d="M323.603,276.646C330.199,276.646 336.36,275.098 342.09,272.003L342.115,290.041C336.132,292.171 329.967,293.237 323.625,293.237C308.302,293.237 295.204,287.808 284.332,276.95C273.459,266.092 268.012,253.002 267.99,237.679C267.972,222.356 273.383,209.265 284.227,198.407C295.07,187.549 308.153,182.121 323.477,182.121C329.818,182.121 335.983,183.161 341.974,185.241L341.999,203.355C336.259,200.209 330.094,198.636 323.498,198.636C312.741,198.636 303.562,202.466 295.961,210.128C288.362,217.739 284.567,226.922 284.582,237.679C284.596,248.435 288.416,257.619 296.038,265.23C303.655,272.84 312.847,276.646 323.603,276.646Z" style="fill:white;fill-rule:nonzero;"/>
            <path d="M323.603,276.646C330.199,276.646 336.36,275.098 342.09,272.003L342.115,290.041C336.132,292.171 329.967,293.237 323.625,293.237C308.302,293.237 295.204,287.808 284.332,276.95C273.459,266.092 268.012,253.002 267.99,237.679C267.972,222.356 273.383,209.265 284.227,198.407C295.07,187.549 308.153,182.121 323.477,182.121C329.818,182.121 335.983,183.161 341.974,185.241L341.999,203.355C336.259,200.209 330.094,198.636 323.498,198.636C312.741,198.636 303.562,202.466 295.961,210.128C288.362,217.739 284.567,226.922 284.582,237.679C284.596,248.435 288.416,257.619 296.038,265.23C303.655,272.84 312.847,276.646 323.603,276.646Z" style="fill:none;stroke:white;stroke-width:7.42px;"/>
            <path d="M432.157,183.262L388.696,237.45L433.828,292.171L412.366,292.171L378.136,250.617L373.048,256.934L373.095,292.171L356.579,292.171L356.431,183.262L372.946,183.262L373.011,230.525L411,183.262L432.157,183.262Z" style="fill:white;fill-rule:nonzero;"/>
            <path d="M432.157,183.262L388.696,237.45L433.828,292.171L412.366,292.171L378.136,250.617L373.048,256.934L373.095,292.171L356.579,292.171L356.431,183.262L372.946,183.262L373.011,230.525L411,183.262L432.157,183.262Z" style="fill:none;stroke:white;stroke-width:7.42px;"/>
            <path d="M98.104,305.73L98.251,414.639L81.735,414.639L81.673,368.366L37.379,368.366L37.441,414.639L20.925,414.639L20.779,305.882L37.294,305.882L37.357,351.851L81.652,351.851L81.588,305.73L98.104,305.73Z" style="fill:white;fill-rule:nonzero;"/>
            <path d="M98.104,305.73L98.251,414.639L81.735,414.639L81.673,368.366L37.379,368.366L37.441,414.639L20.925,414.639L20.779,305.882L37.294,305.882L37.357,351.851L81.652,351.851L81.588,305.73L98.104,305.73Z" style="fill:none;stroke:white;stroke-width:7.42px;"/>
            <path d="M132.273,414.639L115.757,414.639L115.609,305.882L132.124,305.882L132.273,414.639Z" style="fill:white;fill-rule:nonzero;"/>
            <path d="M132.273,414.639L115.757,414.639L115.609,305.882L132.124,305.882L132.273,414.639Z" style="fill:none;stroke:white;stroke-width:7.42px;"/>
            <path d="M179.307,415.629C172.099,415.324 165.452,413.396 159.356,409.844C152.452,405.836 147.755,400.458 145.258,393.71L160.777,388.002C162.052,391.351 164.666,394.065 168.623,396.145C172.127,397.921 175.933,398.91 180.043,399.113C186.385,399.367 191.64,397.819 195.797,394.471C199.294,391.63 201.135,388.382 201.335,384.729C201.628,377.778 194.344,372.222 179.474,368.062C156.174,361.516 144.87,350.43 145.559,334.803C145.998,323.843 150.684,315.649 159.606,310.22C166.401,306.06 174.567,304.208 184.105,304.664C195.674,305.171 204.966,309.205 211.979,316.765L199.889,328.029C195.924,323.767 190.422,321.484 183.366,321.179C178.394,320.977 174.157,321.611 170.656,323.082C165.18,325.416 162.324,329.577 162.078,335.564C161.781,342.413 169.065,347.919 183.939,352.079C197.337,355.834 206.833,361.364 212.425,368.671C216.288,373.744 218.1,379.351 217.854,385.49C217.462,394.116 213.563,401.422 206.162,407.409C199.272,412.94 191.006,415.705 181.366,415.705C180.655,415.705 179.967,415.679 179.307,415.629Z" style="fill:white;fill-rule:nonzero;"/>
            <path d="M179.307,415.629C172.099,415.324 165.452,413.396 159.356,409.844C152.452,405.836 147.755,400.458 145.258,393.71L160.777,388.002C162.052,391.351 164.666,394.065 168.623,396.145C172.127,397.921 175.933,398.91 180.043,399.113C186.385,399.367 191.64,397.819 195.797,394.471C199.294,391.63 201.135,388.382 201.335,384.729C201.628,377.778 194.344,372.222 179.474,368.062C156.174,361.516 144.87,350.43 145.559,334.803C145.998,323.843 150.684,315.649 159.606,310.22C166.401,306.06 174.567,304.208 184.105,304.664C195.674,305.171 204.966,309.205 211.979,316.765L199.889,328.029C195.924,323.767 190.422,321.484 183.366,321.179C178.394,320.977 174.157,321.611 170.656,323.082C165.18,325.416 162.324,329.577 162.078,335.564C161.781,342.413 169.065,347.919 183.939,352.079C197.337,355.834 206.833,361.364 212.425,368.671C216.288,373.744 218.1,379.351 217.854,385.49C217.462,394.116 213.563,401.422 206.162,407.409C199.272,412.94 191.006,415.705 181.366,415.705C180.655,415.705 179.967,415.679 179.307,415.629Z" style="fill:none;stroke:white;stroke-width:7.42px;"/>
            <path d="M289.818,305.73L289.84,322.245L266.78,322.245L266.903,414.639L250.312,414.639L250.188,322.245L227.128,322.245L227.106,305.73L289.818,305.73Z" style="fill:white;fill-rule:nonzero;"/>
            <path d="M289.818,305.73L289.84,322.245L266.78,322.245L266.903,414.639L250.312,414.639L250.188,322.245L227.128,322.245L227.106,305.73L289.818,305.73Z" style="fill:none;stroke:white;stroke-width:7.42px;"/>
            <path d="M314.971,332.596C307.367,340.206 303.576,349.39 303.591,360.147C303.604,370.903 307.421,380.087 315.043,387.697C322.664,395.308 331.852,399.113 342.608,399.113C353.364,399.113 362.545,395.308 370.145,387.697C377.744,380.087 381.539,370.903 381.524,360.147C381.51,349.39 377.69,340.206 370.072,332.596C362.45,324.985 353.26,321.179 342.503,321.179C331.746,321.179 322.57,324.985 314.971,332.596ZM303.34,399.418C292.464,388.56 287.021,375.469 286.999,360.147C286.977,344.823 292.388,331.733 303.231,320.875C314.075,310.017 327.158,304.588 342.481,304.588C357.804,304.588 370.902,310.017 381.774,320.875C392.646,331.733 398.094,344.823 398.115,360.147C398.138,375.469 392.723,388.56 381.883,399.418C371.04,410.276 357.956,415.705 342.634,415.705C327.311,415.705 314.213,410.276 303.34,399.418Z" style="fill:white;fill-rule:nonzero;"/>
            <path d="M314.971,332.596C307.367,340.206 303.576,349.39 303.591,360.147C303.604,370.903 307.421,380.087 315.043,387.697C322.664,395.308 331.852,399.113 342.608,399.113C353.364,399.113 362.545,395.308 370.145,387.697C377.744,380.087 381.539,370.903 381.524,360.147C381.51,349.39 377.69,340.206 370.072,332.596C362.45,324.985 353.26,321.179 342.503,321.179C331.746,321.179 322.57,324.985 314.971,332.596ZM303.34,399.418C292.464,388.56 287.021,375.469 286.999,360.147C286.977,344.823 292.388,331.733 303.231,320.875C314.075,310.017 327.158,304.588 342.481,304.588C357.804,304.588 370.902,310.017 381.774,320.875C392.646,331.733 398.094,344.823 398.115,360.147C398.138,375.469 392.723,388.56 381.883,399.418C371.04,410.276 357.956,415.705 342.634,415.705C327.311,415.705 314.213,410.276 303.34,399.418Z" style="fill:none;stroke:white;stroke-width:7.42px;"/>
            <path d="M450.238,352.231C454.349,352.231 457.871,350.76 460.81,347.817C463.698,344.925 465.141,341.424 465.134,337.314C465.13,333.154 463.681,329.602 460.781,326.659C457.835,323.716 454.309,322.245 450.198,322.245L426.529,322.245L426.569,352.231L450.238,352.231ZM487.767,414.639L469.12,414.639L445.237,368.747L426.591,368.747L426.652,414.639L410.137,414.639L409.992,305.73L450.177,305.73C458.853,305.73 466.265,308.825 472.411,315.015C478.608,321.154 481.714,328.588 481.725,337.314C481.736,343.707 479.942,349.542 476.347,354.819C472.854,359.994 468.265,363.799 462.586,366.235L487.767,414.639Z" style="fill:white;fill-rule:nonzero;"/>
            <path d="M450.238,352.231C454.349,352.231 457.871,350.76 460.81,347.817C463.698,344.925 465.141,341.424 465.134,337.314C465.13,333.154 463.681,329.602 460.781,326.659C457.835,323.716 454.309,322.245 450.198,322.245L426.529,322.245L426.569,352.231L450.238,352.231ZM487.767,414.639L469.12,414.639L445.237,368.747L426.591,368.747L426.652,414.639L410.137,414.639L409.992,305.73L450.177,305.73C458.853,305.73 466.265,308.825 472.411,315.015C478.608,321.154 481.714,328.588 481.725,337.314C481.736,343.707 479.942,349.542 476.347,354.819C472.854,359.994 468.265,363.799 462.586,366.235L487.767,414.639Z" style="fill:none;stroke:white;stroke-width:7.42px;"/>
            <path d="M572.481,305.73L538.613,363.419L538.683,414.639L522.091,414.639L522.021,363.419L488.002,305.73L507.182,305.73L530.292,344.849L553.302,305.73L572.481,305.73Z" style="fill:white;fill-rule:nonzero;"/>
            <path d="M572.481,305.73L538.613,363.419L538.683,414.639L522.091,414.639L522.021,363.419L488.002,305.73L507.182,305.73L530.292,344.849L553.302,305.73L572.481,305.73Z" style="fill:none;stroke:white;stroke-width:7.42px;"/>
            <path d="M133.933,428.197L134.078,537.107L117.563,537.107L117.468,467.925L87.271,537.107L68.625,537.107L38.774,468.382L38.867,537.107L22.352,537.107L22.205,428.197L39.481,428.197L77.96,517.09L116.656,428.197L133.933,428.197Z" style="fill:white;fill-rule:nonzero;"/>
            <path d="M133.933,428.197L134.078,537.107L117.563,537.107L117.468,467.925L87.271,537.107L68.625,537.107L38.774,468.382L38.867,537.107L22.352,537.107L22.205,428.197L39.481,428.197L77.96,517.09L116.656,428.197L133.933,428.197Z" style="fill:none;stroke:white;stroke-width:7.42px;"/>
            <path d="M174.61,455.063C167.01,462.673 163.216,471.858 163.23,482.614C163.245,493.371 167.064,502.554 174.687,510.165C182.308,517.776 191.495,521.581 202.251,521.581C213.008,521.581 222.188,517.776 229.788,510.165C237.388,502.554 241.179,493.371 241.164,482.614C241.15,471.858 237.333,462.673 229.712,455.063C222.09,447.453 212.903,443.647 202.146,443.647C191.39,443.647 182.21,447.453 174.61,455.063ZM162.98,521.886C152.108,511.027 146.661,497.937 146.639,482.614C146.621,467.291 152.032,454.201 162.875,443.342C173.719,432.485 186.802,427.055 202.125,427.055C217.448,427.055 230.545,432.485 241.418,443.342C252.291,454.201 257.737,467.291 257.756,482.614C257.777,497.937 252.367,511.027 241.523,521.886C230.68,532.744 217.596,538.173 202.273,538.173C186.95,538.173 173.853,532.744 162.98,521.886Z" style="fill:white;fill-rule:nonzero;"/>
            <path d="M174.61,455.063C167.01,462.673 163.216,471.858 163.23,482.614C163.245,493.371 167.064,502.554 174.687,510.165C182.308,517.776 191.495,521.581 202.251,521.581C213.008,521.581 222.188,517.776 229.788,510.165C237.388,502.554 241.179,493.371 241.164,482.614C241.15,471.858 237.333,462.673 229.712,455.063C222.09,447.453 212.903,443.647 202.146,443.647C191.39,443.647 182.21,447.453 174.61,455.063ZM162.98,521.886C152.108,511.027 146.661,497.937 146.639,482.614C146.621,467.291 152.032,454.201 162.875,443.342C173.719,432.485 186.802,427.055 202.125,427.055C217.448,427.055 230.545,432.485 241.418,443.342C252.291,454.201 257.737,467.291 257.756,482.614C257.777,497.937 252.367,511.027 241.523,521.886C230.68,532.744 217.596,538.173 202.273,538.173C186.95,538.173 173.853,532.744 162.98,521.886Z" style="fill:none;stroke:white;stroke-width:7.42px;"/>
            <path d="M349.77,428.197L349.918,537.107L332.642,537.107L285.959,459.249L286.064,537.107L269.549,537.107L269.4,428.197L286.676,428.197L333.283,506.055L333.178,428.197L349.77,428.197Z" style="fill:white;fill-rule:nonzero;"/>
            <path d="M349.77,428.197L349.918,537.107L332.642,537.107L285.959,459.249L286.064,537.107L269.549,537.107L269.4,428.197L286.676,428.197L333.283,506.055L333.178,428.197L349.77,428.197Z" style="fill:none;stroke:white;stroke-width:7.42px;"/>
            <path d="M425.877,428.197L425.898,444.713L402.838,444.713L402.965,537.107L386.373,537.107L386.247,444.713L363.187,444.713L363.164,428.197L425.877,428.197Z" style="fill:white;fill-rule:nonzero;"/>
            <path d="M425.877,428.197L425.898,444.713L402.838,444.713L402.965,537.107L386.373,537.107L386.247,444.713L363.187,444.713L363.164,428.197L425.877,428.197Z" style="fill:none;stroke:white;stroke-width:7.42px;"/>
            <path d="M518.195,428.197L518.344,537.107L501.828,537.107L501.763,490.834L457.469,490.834L457.534,537.107L441.019,537.107L440.87,428.349L457.385,428.349L457.447,474.318L501.741,474.318L501.68,428.197L518.195,428.197Z" style="fill:white;fill-rule:nonzero;"/>
            <path d="M518.195,428.197L518.344,537.107L501.828,537.107L501.763,490.834L457.469,490.834L457.534,537.107L441.019,537.107L440.87,428.349L457.385,428.349L457.447,474.318L501.741,474.318L501.68,428.197L518.195,428.197Z" style="fill:none;stroke:white;stroke-width:7.42px;"/>
            <path d="M38.673,643.059L62.342,643.059C66.452,643.059 69.977,641.588 72.916,638.645C75.804,635.702 77.245,632.15 77.239,627.99C77.234,623.881 75.783,620.38 72.887,617.487C69.94,614.545 66.412,613.073 62.302,613.073L38.633,613.073L38.673,643.059ZM38.611,596.557L56.268,596.557C60.327,596.557 63.774,595.112 66.611,592.219C69.5,589.379 70.942,585.928 70.937,581.869C70.932,577.81 69.48,574.36 66.585,571.518C63.738,568.627 60.288,567.18 56.229,567.18L38.571,567.18L38.611,596.557ZM22.179,659.575L22.033,550.665L56.205,550.665C64.83,550.665 72.193,553.71 78.289,559.798C84.386,565.937 87.439,573.295 87.452,581.869C87.461,589.53 85.008,596.254 80.097,602.038C84.312,604.929 87.614,608.633 90.005,613.149C92.548,617.766 93.824,622.714 93.831,627.99C93.842,636.717 90.757,644.15 84.577,650.29C78.444,656.479 71.04,659.575 62.364,659.575L22.179,659.575Z" style="fill:white;fill-rule:nonzero;"/>
            <path d="M38.673,643.059L62.342,643.059C66.452,643.059 69.977,641.588 72.916,638.645C75.804,635.702 77.245,632.15 77.239,627.99C77.234,623.881 75.783,620.38 72.887,617.487C69.94,614.545 66.412,613.073 62.302,613.073L38.633,613.073L38.673,643.059ZM38.611,596.557L56.268,596.557C60.327,596.557 63.774,595.112 66.611,592.219C69.5,589.379 70.942,585.928 70.937,581.869C70.932,577.81 69.48,574.36 66.585,571.518C63.738,568.627 60.288,567.18 56.229,567.18L38.571,567.18L38.611,596.557ZM22.179,659.575L22.033,550.665L56.205,550.665C64.83,550.665 72.193,553.71 78.289,559.798C84.386,565.937 87.439,573.295 87.452,581.869C87.461,589.53 85.008,596.254 80.097,602.038C84.312,604.929 87.614,608.633 90.005,613.149C92.548,617.766 93.824,622.714 93.831,627.99C93.842,636.717 90.757,644.15 84.577,650.29C78.444,656.479 71.04,659.575 62.364,659.575L22.179,659.575Z" style="fill:none;stroke:white;stroke-width:7.42px;"/>
            <path d="M162.455,550.665L162.477,567.18L123.43,567.18L123.47,596.71L153.608,596.71L153.63,613.225L123.495,613.225L123.535,643.059L162.578,643.059L162.6,659.575L107.042,659.575L106.893,550.665L162.455,550.665Z" style="fill:white;fill-rule:nonzero;"/>
            <path d="M162.455,550.665L162.477,567.18L123.43,567.18L123.47,596.71L153.608,596.71L153.63,613.225L123.495,613.225L123.535,643.059L162.578,643.059L162.6,659.575L107.042,659.575L106.893,550.665L162.455,550.665Z" style="fill:none;stroke:white;stroke-width:7.42px;"/>
            <path d="M192.209,550.665L192.333,643.059L231.375,643.059L231.397,659.575L175.839,659.575L175.694,550.665L192.209,550.665Z" style="fill:white;fill-rule:nonzero;"/>
            <path d="M192.209,550.665L192.333,643.059L231.375,643.059L231.397,659.575L175.839,659.575L175.694,550.665L192.209,550.665Z" style="fill:none;stroke:white;stroke-width:7.42px;"/>
            <path d="M247.133,644.353C236.261,633.495 230.813,620.405 230.792,605.082C230.77,589.758 236.181,576.669 247.024,565.81C257.868,554.953 270.951,549.523 286.274,549.523C293.834,549.523 301.043,550.969 307.896,553.861L301.524,569.159C296.65,567.079 291.573,566.039 286.296,566.039C275.54,566.039 266.363,569.87 258.763,577.531C251.163,585.141 247.369,594.325 247.383,605.082C247.398,615.839 251.214,625.022 258.834,632.632C266.457,640.243 275.645,644.048 286.401,644.048C289.902,644.048 293.301,643.618 296.6,642.755L296.56,613.073L278.903,613.073L278.881,596.481L313.129,596.481L313.205,654.094L308.186,656.226C301.238,659.169 293.986,660.64 286.426,660.64C271.104,660.64 258.006,655.211 247.133,644.353Z" style="fill:white;fill-rule:nonzero;"/>
            <path d="M247.133,644.353C236.261,633.495 230.813,620.405 230.792,605.082C230.77,589.758 236.181,576.669 247.024,565.81C257.868,554.953 270.951,549.523 286.274,549.523C293.834,549.523 301.043,550.969 307.896,553.861L301.524,569.159C296.65,567.079 291.573,566.039 286.296,566.039C275.54,566.039 266.363,569.87 258.763,577.531C251.163,585.141 247.369,594.325 247.383,605.082C247.398,615.839 251.214,625.022 258.834,632.632C266.457,640.243 275.645,644.048 286.401,644.048C289.902,644.048 293.301,643.618 296.6,642.755L296.56,613.073L278.903,613.073L278.881,596.481L313.129,596.481L313.205,654.094L308.186,656.226C301.238,659.169 293.986,660.64 286.426,660.64C271.104,660.64 258.006,655.211 247.133,644.353Z" style="fill:none;stroke:white;stroke-width:7.42px;"/>
            <path d="M342.666,659.575L326.15,659.575L326.006,550.817L342.521,550.817L342.666,659.575Z" style="fill:white;fill-rule:nonzero;"/>
            <path d="M342.666,659.575L326.15,659.575L326.006,550.817L342.521,550.817L342.666,659.575Z" style="fill:none;stroke:white;stroke-width:7.42px;"/>
            <path d="M372.866,649.224C365.299,641.664 361.505,632.531 361.49,621.825L361.396,550.589L377.987,550.589L378.081,621.825C378.089,627.964 380.252,633.191 384.572,637.504C388.943,641.867 394.169,644.048 400.258,644.048C406.396,644.048 411.623,641.867 415.929,637.504C420.285,633.191 422.459,627.964 422.452,621.825L422.357,550.589L438.949,550.589L439.043,621.825C439.058,632.531 435.267,641.664 427.663,649.224C420.114,656.784 410.988,660.564 400.283,660.564C389.628,660.564 380.488,656.784 372.866,649.224Z" style="fill:white;fill-rule:nonzero;"/>
            <path d="M372.866,649.224C365.299,641.664 361.505,632.531 361.49,621.825L361.396,550.589L377.987,550.589L378.081,621.825C378.089,627.964 380.252,633.191 384.572,637.504C388.943,641.867 394.169,644.048 400.258,644.048C406.396,644.048 411.623,641.867 415.929,637.504C420.285,633.191 422.459,627.964 422.452,621.825L422.357,550.589L438.949,550.589L439.043,621.825C439.058,632.531 435.267,641.664 427.663,649.224C420.114,656.784 410.988,660.564 400.283,660.564C389.628,660.564 380.488,656.784 372.866,649.224Z" style="fill:none;stroke:white;stroke-width:7.42px;"/>
            <path d="M570.31,550.665L570.455,659.575L553.94,659.575L553.85,590.393L523.649,659.575L505.003,659.575L475.154,590.849L475.245,659.575L458.729,659.575L458.585,550.665L475.861,550.665L514.339,639.558L553.034,550.665L570.31,550.665Z" style="fill:white;fill-rule:nonzero;"/>
            <path d="M570.31,550.665L570.455,659.575L553.94,659.575L553.85,590.393L523.649,659.575L505.003,659.575L475.154,590.849L475.245,659.575L458.729,659.575L458.585,550.665L475.861,550.665L514.339,639.558L553.034,550.665L570.31,550.665Z" style="fill:none;stroke:white;stroke-width:7.42px;"/>
        </g>
    </g>
</svg>
