<?xml version="1.0" encoding="UTF-8" standalone="no"?>
<!DOCTYPE svg PUBLIC "-//W3C//DTD SVG 1.1//EN" "http://www.w3.org/Graphics/SVG/1.1/DTD/svg11.dtd">
<svg width="100%" height="100%" viewBox="0 0 522 447" version="1.1" xmlns="http://www.w3.org/2000/svg" xmlns:xlink="http://www.w3.org/1999/xlink" xml:space="preserve" xmlns:serif="http://www.serif.com/" style="fill-rule:evenodd;clip-rule:evenodd;stroke-miterlimit:10;">
    <g transform="matrix(1,0,0,1,-55.047,-197.087)">
        <g>
            <path d="M85.3,316.14L85.18,228.15L112.79,228.15C119.76,228.15 125.71,230.61 130.63,235.53C135.56,240.49 138.02,246.43 138.03,253.36C138.04,259.55 136.06,264.98 132.09,269.65C135.5,271.99 138.16,274.98 140.1,278.63C142.15,282.36 143.18,286.36 143.19,290.62C143.2,297.67 140.71,303.68 135.71,308.64C130.76,313.64 124.78,316.14 117.77,316.14L85.3,316.14ZM98.58,265.23L112.85,265.23C116.13,265.23 118.91,264.06 121.21,261.73C123.54,259.43 124.71,256.65 124.7,253.37C124.7,250.09 123.52,247.3 121.18,245.01C118.88,242.67 116.09,241.51 112.81,241.51L98.55,241.51L98.58,265.23ZM98.63,302.8L117.75,302.8C121.07,302.8 123.92,301.61 126.29,299.23C128.62,296.85 129.79,293.98 129.78,290.62C129.78,287.3 128.6,284.47 126.26,282.13C123.88,279.75 121.03,278.56 117.71,278.56L98.6,278.56L98.63,302.8Z" style="fill:white;fill-rule:nonzero;stroke:white;stroke-width:6px;"/>
            <path d="M167.09,228.15L167.19,302.8L198.73,302.8L198.75,316.14L153.86,316.14L153.74,228.15L167.09,228.15Z" style="fill:white;fill-rule:nonzero;stroke:white;stroke-width:6px;"/>
            <path d="M279.28,228.15L279.4,316.14L266,316.14L265.97,295.6L236.09,295.6L223.14,316.14L207.34,316.14L262.87,228.15L279.28,228.15ZM244.48,282.26L265.94,282.26L265.89,248.38L244.48,282.26Z" style="fill:white;fill-rule:nonzero;stroke:white;stroke-width:6px;"/>
            <path d="M335.39,303.6C340.72,303.6 345.7,302.35 350.33,299.85L350.35,314.42C345.52,316.14 340.54,317 335.41,317C323.03,317 312.45,312.61 303.66,303.84C294.88,295.07 290.47,284.49 290.46,272.11C290.45,259.73 294.82,249.15 303.58,240.38C312.34,231.61 322.91,227.22 335.29,227.22C340.41,227.22 345.39,228.06 350.23,229.74L350.25,244.37C345.61,241.83 340.63,240.56 335.3,240.56C326.61,240.56 319.19,243.65 313.05,249.84C306.91,255.99 303.84,263.41 303.86,272.1C303.88,280.79 306.96,288.21 313.12,294.36C319.28,300.52 326.7,303.6 335.39,303.6Z" style="fill:white;fill-rule:nonzero;stroke:white;stroke-width:6px;"/>
            <path d="M423.1,228.15L387.99,271.93L424.45,316.14L407.11,316.14L379.45,282.57L375.34,287.67L375.38,316.14L362.04,316.14L361.92,228.15L375.26,228.15L375.31,266.34L406,228.15L423.1,228.15Z" style="fill:white;fill-rule:nonzero;stroke:white;stroke-width:6px;"/>
            <path d="M148.07,327.09L148.19,415.08L134.85,415.08L134.8,377.69L99.01,377.69L99.06,415.08L85.72,415.08L85.6,327.21L98.94,327.21L98.99,364.35L134.78,364.35L134.73,327.09L148.07,327.09Z" style="fill:white;fill-rule:nonzero;stroke:white;stroke-width:6px;"/>
            <path d="M179.1,415.09L165.76,415.09L165.64,327.22L178.98,327.22L179.1,415.09Z" style="fill:white;fill-rule:nonzero;stroke:white;stroke-width:6px;"/>
            <path d="M220.52,415.88C214.7,415.63 209.33,414.08 204.4,411.21C198.82,407.97 195.03,403.63 193.01,398.17L205.55,393.56C206.58,396.27 208.69,398.46 211.89,400.14C214.72,401.57 217.8,402.37 221.12,402.54C226.24,402.74 230.49,401.49 233.85,398.79C236.68,396.49 238.16,393.87 238.32,390.92C238.56,385.3 232.67,380.82 220.66,377.45C201.84,372.16 192.7,363.2 193.26,350.58C193.61,341.73 197.4,335.11 204.61,330.72C210.1,327.36 216.7,325.86 224.4,326.23C233.75,326.64 241.25,329.9 246.92,336.01L237.15,345.11C233.95,341.67 229.5,339.82 223.8,339.58C219.78,339.42 216.36,339.93 213.53,341.12C209.11,343.01 206.8,346.37 206.6,351.2C206.36,356.73 212.25,361.18 224.26,364.54C235.09,367.57 242.76,372.04 247.27,377.94C250.39,382.04 251.86,386.57 251.66,391.53C251.34,398.5 248.19,404.4 242.21,409.24C236.64,413.71 229.96,415.94 222.18,415.94C221.61,415.95 221.06,415.93 220.52,415.88Z" style="fill:white;fill-rule:nonzero;stroke:white;stroke-width:6px;"/>
            <path d="M309.81,327.09L309.83,340.43L291.2,340.43L291.3,415.08L277.9,415.08L277.8,340.43L259.17,340.43L259.15,327.09L309.81,327.09Z" style="fill:white;fill-rule:nonzero;stroke:white;stroke-width:6px;"/>
            <path d="M325.87,402.79C317.08,394.02 312.68,383.44 312.67,371.06C312.66,358.68 317.02,348.1 325.78,339.33C334.54,330.56 345.11,326.17 357.49,326.17C369.87,326.17 380.45,330.56 389.24,339.33C398.02,348.1 402.43,358.68 402.44,371.06C402.46,383.44 398.08,394.02 389.33,402.79C380.57,411.56 370,415.95 357.62,415.95C345.23,415.95 334.65,411.56 325.87,402.79ZM335.26,348.8C329.12,354.95 326.05,362.37 326.07,371.06C326.09,379.75 329.16,387.17 335.32,393.32C341.48,399.47 348.9,402.54 357.59,402.54C366.28,402.54 373.7,399.47 379.84,393.32C385.98,387.17 389.05,379.75 389.03,371.06C389.02,362.37 385.93,354.95 379.78,348.8C373.62,342.65 366.2,339.58 357.51,339.58C348.82,339.58 341.4,342.65 335.26,348.8Z" style="fill:white;fill-rule:nonzero;stroke:white;stroke-width:6px;"/>
            <path d="M478.29,415.09L463.22,415.09L443.92,378.01L428.86,378.01L428.91,415.09L415.57,415.09L415.45,327.1L447.92,327.1C454.93,327.1 460.92,329.6 465.88,334.6C470.89,339.56 473.4,345.57 473.41,352.62C473.42,357.79 471.97,362.5 469.06,366.76C466.24,370.94 462.53,374.02 457.94,375.98L478.29,415.09ZM447.97,364.66C451.29,364.66 454.14,363.47 456.51,361.09C458.84,358.75 460.01,355.92 460,352.6C460,349.24 458.83,346.37 456.48,343.99C454.1,341.61 451.25,340.42 447.93,340.42L428.81,340.42L428.84,364.65L447.97,364.65L447.97,364.66Z" style="fill:white;fill-rule:nonzero;stroke:white;stroke-width:6px;"/>
            <path d="M546.74,327.09L519.38,373.7L519.44,415.08L506.04,415.08L505.98,373.7L478.49,327.09L493.99,327.09L512.66,358.7L531.25,327.09L546.74,327.09Z" style="fill:white;fill-rule:nonzero;stroke:white;stroke-width:6px;"/>
            <path d="M177.02,426.04L177.14,514.03L163.8,514.03L163.72,458.14L139.32,514.03L124.26,514.03L100.14,458.5L100.21,514.03L86.87,514.03L86.75,426.04L100.71,426.04L131.8,497.86L163.06,426.04L177.02,426.04Z" style="fill:white;fill-rule:nonzero;stroke:white;stroke-width:6px;"/>
            <path d="M203.91,501.73C195.13,492.96 190.72,482.38 190.71,470C190.7,457.62 195.07,447.04 203.83,438.27C212.59,429.5 223.16,425.11 235.54,425.11C247.92,425.11 258.5,429.5 267.29,438.27C276.07,447.04 280.48,457.62 280.49,470C280.51,482.38 276.14,492.96 267.38,501.73C258.62,510.5 248.05,514.89 235.67,514.89C223.28,514.89 212.7,510.51 203.91,501.73ZM213.31,447.75C207.17,453.9 204.1,461.32 204.12,470.01C204.13,478.7 207.22,486.12 213.38,492.27C219.54,498.42 226.96,501.49 235.65,501.49C244.34,501.49 251.76,498.42 257.9,492.27C264.04,486.12 267.1,478.7 267.09,470.01C267.08,461.32 263.99,453.9 257.84,447.75C251.69,441.6 244.26,438.53 235.57,438.53C226.86,438.52 219.45,441.6 213.31,447.75Z" style="fill:white;fill-rule:nonzero;stroke:white;stroke-width:6px;"/>
            <path d="M358.25,426.04L358.37,514.03L344.41,514.03L306.69,451.13L306.77,514.03L293.43,514.03L293.31,426.04L307.27,426.04L344.93,488.94L344.85,426.04L358.25,426.04Z" style="fill:white;fill-rule:nonzero;stroke:white;stroke-width:6px;"/>
            <path d="M419.74,426.04L419.76,439.38L401.13,439.38L401.23,514.03L387.83,514.03L387.73,439.38L369.1,439.38L369.08,426.04L419.74,426.04Z" style="fill:white;fill-rule:nonzero;stroke:white;stroke-width:6px;"/>
            <path d="M494.32,426.04L494.44,514.03L481.1,514.03L481.05,476.64L445.26,476.64L445.31,514.03L431.97,514.03L431.85,426.16L445.19,426.16L445.24,463.3L481.03,463.3L480.98,426.04L494.32,426.04Z" style="fill:white;fill-rule:nonzero;stroke:white;stroke-width:6px;"/>
            <path d="M86.73,612.98L86.61,524.99L114.22,524.99C121.19,524.99 127.14,527.45 132.06,532.37C136.99,537.33 139.45,543.27 139.46,550.2C139.47,556.39 137.49,561.82 133.52,566.49C136.93,568.83 139.59,571.82 141.53,575.47C143.58,579.2 144.61,583.2 144.62,587.46C144.63,594.51 142.14,600.52 137.14,605.48C132.19,610.48 126.2,612.98 119.19,612.98L86.73,612.98ZM100.01,562.06L114.28,562.06C117.56,562.06 120.34,560.89 122.64,558.56C124.97,556.26 126.14,553.48 126.13,550.2C126.13,546.92 124.95,544.13 122.61,541.84C120.31,539.5 117.52,538.34 114.24,538.34L99.98,538.34L100.01,562.06ZM100.06,599.63L119.18,599.63C122.5,599.63 125.35,598.44 127.72,596.06C130.05,593.68 131.22,590.81 131.21,587.45C131.21,584.13 130.03,581.3 127.69,578.96C125.31,576.58 122.46,575.39 119.14,575.39L100.02,575.39L100.06,599.63Z" style="fill:white;fill-rule:nonzero;stroke:white;stroke-width:6px;"/>
            <path d="M200.06,524.99L200.08,538.33L168.53,538.33L168.56,562.19L192.91,562.19L192.93,575.53L168.58,575.53L168.61,599.63L200.15,599.63L200.17,612.97L155.28,612.97L155.16,524.98L200.06,524.98L200.06,524.99Z" style="fill:white;fill-rule:nonzero;stroke:white;stroke-width:6px;"/>
            <path d="M227.53,524.99L227.63,599.64L259.17,599.64L259.19,612.98L214.3,612.98L214.18,524.99L227.53,524.99Z" style="fill:white;fill-rule:nonzero;stroke:white;stroke-width:6px;"/>
            <path d="M275.32,600.68C266.54,591.91 262.13,581.33 262.12,568.95C262.1,556.57 266.47,545.99 275.23,537.22C283.99,528.45 294.56,524.06 306.94,524.06C313.05,524.06 318.87,525.23 324.41,527.56L319.26,539.92C315.32,538.24 311.22,537.4 306.96,537.4C298.27,537.4 290.86,540.5 284.72,546.68C278.58,552.83 275.51,560.25 275.53,568.94C275.55,577.63 278.62,585.05 284.78,591.2C290.94,597.35 298.36,600.42 307.05,600.42C309.88,600.42 312.63,600.07 315.29,599.37L315.26,575.39L300.99,575.39L300.97,561.99L328.64,561.99L328.7,608.54L324.64,610.26C319.03,612.64 313.17,613.83 307.06,613.83C294.69,613.84 284.11,609.45 275.32,600.68Z" style="fill:white;fill-rule:nonzero;stroke:white;stroke-width:6px;"/>
            <path d="M355.93,612.98L342.59,612.98L342.47,525.11L355.81,525.11L355.93,612.98Z" style="fill:white;fill-rule:nonzero;stroke:white;stroke-width:6px;"/>
            <path d="M378.62,604.61C372.51,598.5 369.44,591.12 369.43,582.47L369.35,524.92L382.75,524.92L382.83,582.47C382.84,587.43 384.58,591.65 388.07,595.14C391.6,598.67 395.82,600.43 400.74,600.43C405.7,600.43 409.92,598.67 413.4,595.14C416.92,591.66 418.68,587.43 418.67,582.47L418.59,524.92L431.99,524.92L432.07,582.47C432.08,591.12 429.02,598.5 422.88,604.61C416.78,610.72 409.41,613.77 400.76,613.77C392.16,613.78 384.78,610.72 378.62,604.61Z" style="fill:white;fill-rule:nonzero;stroke:white;stroke-width:6px;"/>
            <path d="M536.43,524.99L536.55,612.98L523.2,612.98L523.13,557.09L498.73,612.98L483.67,612.98L459.55,557.45L459.62,612.98L446.28,612.98L446.16,524.99L460.12,524.99L491.21,596.81L522.47,524.99L536.43,524.99Z" style="fill:white;fill-rule:nonzero;stroke:white;stroke-width:6px;"/>
        </g>
    </g>
</svg>
