<?xml version="1.0" encoding="UTF-8" standalone="no"?>
<!DOCTYPE svg PUBLIC "-//W3C//DTD SVG 1.1//EN" "http://www.w3.org/Graphics/SVG/1.1/DTD/svg11.dtd">
<svg width="100%" height="100%" viewBox="0 0 1980 1667" version="1.1" xmlns="http://www.w3.org/2000/svg" xmlns:xlink="http://www.w3.org/1999/xlink" xml:space="preserve" xmlns:serif="http://www.serif.com/" style="fill-rule:evenodd;clip-rule:evenodd;stroke-miterlimit:2;">
    <g transform="matrix(1,0,0,1,15.4272,13.8105)">
        <g transform="matrix(4.16667,0,0,4.16667,0,0)">
            <path d="M16.446,78.96L35.57,78.96C38.89,78.96 41.738,77.772 44.112,75.394C46.446,73.017 47.61,70.147 47.605,66.786C47.601,63.465 46.428,60.637 44.089,58.3C41.708,55.922 38.858,54.734 35.537,54.734L16.414,54.734L16.446,78.96ZM16.395,41.391L30.66,41.391C33.94,41.391 36.725,40.222 39.019,37.886C41.352,35.59 42.516,32.802 42.512,29.523C42.508,26.244 41.336,23.456 38.997,21.16C36.697,18.824 33.909,17.655 30.63,17.655L16.364,17.655L16.395,41.391ZM3.12,92.304L3.002,4.312L30.611,4.312C37.58,4.312 43.528,6.772 48.453,11.691C53.38,16.651 55.846,22.595 55.855,29.523C55.864,35.713 53.882,41.144 49.913,45.818C53.32,48.154 55.986,51.147 57.92,54.795C59.973,58.525 61.004,62.522 61.01,66.786C61.019,73.836 58.527,79.842 53.532,84.802C48.579,89.803 42.597,92.304 35.587,92.304L3.12,92.304Z" style="fill:white;fill-rule:nonzero;"/>
            <path d="M16.446,78.96L35.57,78.96C38.89,78.96 41.738,77.772 44.112,75.394C46.446,73.017 47.61,70.147 47.605,66.786C47.601,63.465 46.428,60.637 44.089,58.3C41.708,55.922 38.858,54.734 35.537,54.734L16.414,54.734L16.446,78.96ZM16.395,41.391L30.66,41.391C33.94,41.391 36.725,40.222 39.019,37.886C41.352,35.59 42.516,32.802 42.512,29.523C42.508,26.244 41.336,23.456 38.997,21.16C36.697,18.824 33.909,17.655 30.63,17.655L16.364,17.655L16.395,41.391ZM3.12,92.304L3.002,4.312L30.611,4.312C37.58,4.312 43.528,6.772 48.453,11.691C53.38,16.651 55.846,22.595 55.855,29.523C55.864,35.713 53.882,41.144 49.913,45.818C53.32,48.154 55.986,51.147 57.92,54.795C59.973,58.525 61.004,62.522 61.01,66.786C61.019,73.836 58.527,79.842 53.532,84.802C48.579,89.803 42.597,92.304 35.587,92.304L3.12,92.304Z" style="fill:none;stroke:white;stroke-width:6px;"/>
            <path d="M84.907,4.312L85.007,78.96L116.549,78.96L116.57,92.304L71.681,92.304L71.564,4.312L84.907,4.312Z" style="fill:white;fill-rule:nonzero;"/>
            <path d="M84.907,4.312L85.007,78.96L116.549,78.96L116.57,92.304L71.681,92.304L71.564,4.312L84.907,4.312Z" style="fill:none;stroke:white;stroke-width:6px;"/>
            <path d="M162.301,58.423L183.76,58.423L183.714,24.542L162.301,58.423ZM197.092,4.312L197.212,92.304L183.807,92.304L183.778,71.767L153.894,71.767L140.949,92.304L125.146,92.304L180.674,4.312L197.092,4.312Z" style="fill:white;fill-rule:nonzero;"/>
            <path d="M162.301,58.423L183.76,58.423L183.714,24.542L162.301,58.423ZM197.092,4.312L197.212,92.304L183.807,92.304L183.778,71.767L153.894,71.767L140.949,92.304L125.146,92.304L180.674,4.312L197.092,4.312Z" style="fill:none;stroke:white;stroke-width:6px;"/>
            <path d="M253.211,79.76C258.54,79.76 263.519,78.51 268.148,76.009L268.168,90.582C263.334,92.304 258.353,93.165 253.229,93.165C240.849,93.165 230.267,88.778 221.483,80.006C212.698,71.233 208.298,60.657 208.28,48.277C208.265,35.897 212.637,25.321 221.398,16.549C230.158,7.776 240.729,3.39 253.109,3.39C258.234,3.39 263.214,4.23 268.054,5.911L268.074,20.545C263.437,18.004 258.454,16.733 253.126,16.733C244.436,16.733 237.019,19.828 230.879,26.018C224.738,32.167 221.673,39.587 221.685,48.277C221.697,56.968 224.782,64.388 230.941,70.537C237.095,76.686 244.521,79.76 253.211,79.76Z" style="fill:white;fill-rule:nonzero;"/>
            <path d="M253.211,79.76C258.54,79.76 263.519,78.51 268.148,76.009L268.168,90.582C263.334,92.304 258.353,93.165 253.229,93.165C240.849,93.165 230.267,88.778 221.483,80.006C212.698,71.233 208.298,60.657 208.28,48.277C208.265,35.897 212.637,25.321 221.398,16.549C230.158,7.776 240.729,3.39 253.109,3.39C258.234,3.39 263.214,4.23 268.054,5.911L268.074,20.545C263.437,18.004 258.454,16.733 253.126,16.733C244.436,16.733 237.019,19.828 230.879,26.018C224.738,32.167 221.673,39.587 221.685,48.277C221.697,56.968 224.782,64.388 230.941,70.537C237.095,76.686 244.521,79.76 253.211,79.76Z" style="fill:none;stroke:white;stroke-width:6px;"/>
            <path d="M340.916,4.312L305.803,48.093L342.266,92.304L324.926,92.304L297.271,58.73L293.159,63.834L293.197,92.304L279.854,92.304L279.734,4.312L293.077,4.312L293.13,42.497L323.822,4.312L340.916,4.312Z" style="fill:white;fill-rule:nonzero;"/>
            <path d="M340.916,4.312L305.803,48.093L342.266,92.304L324.926,92.304L297.271,58.73L293.159,63.834L293.197,92.304L279.854,92.304L279.734,4.312L293.077,4.312L293.13,42.497L323.822,4.312L340.916,4.312Z" style="fill:none;stroke:white;stroke-width:6px;"/>
            <path d="M65.89,103.257L66.009,191.249L52.665,191.249L52.615,153.863L16.828,153.863L16.878,191.249L3.535,191.249L3.416,103.38L16.76,103.38L16.811,140.52L52.598,140.52L52.547,103.257L65.89,103.257Z" style="fill:white;fill-rule:nonzero;"/>
            <path d="M65.89,103.257L66.009,191.249L52.665,191.249L52.615,153.863L16.828,153.863L16.878,191.249L3.535,191.249L3.416,103.38L16.76,103.38L16.811,140.52L52.598,140.52L52.547,103.257L65.89,103.257Z" style="fill:none;stroke:white;stroke-width:6px;"/>
            <path d="M96.918,191.249L83.574,191.249L83.454,103.38L96.798,103.38L96.918,191.249Z" style="fill:white;fill-rule:nonzero;"/>
            <path d="M96.918,191.249L83.574,191.249L83.454,103.38L96.798,103.38L96.918,191.249Z" style="fill:none;stroke:white;stroke-width:6px;"/>
            <path d="M138.341,192.048C132.517,191.803 127.147,190.245 122.222,187.375C116.644,184.137 112.849,179.791 110.832,174.339L123.37,169.728C124.401,172.433 126.511,174.626 129.709,176.307C132.541,177.742 135.615,178.541 138.935,178.705C144.06,178.91 148.305,177.66 151.664,174.955C154.489,172.659 155.977,170.035 156.138,167.083C156.375,161.468 150.489,156.979 138.476,153.618C119.651,148.33 110.518,139.373 111.075,126.747C111.429,117.892 115.215,111.271 122.424,106.885C127.914,103.524 134.511,102.028 142.218,102.396C151.564,102.807 159.072,106.065 164.738,112.173L154.969,121.274C151.766,117.831 147.322,115.986 141.62,115.74C137.603,115.576 134.18,116.088 131.352,117.277C126.927,119.163 124.62,122.524 124.421,127.361C124.181,132.896 130.065,137.343 142.083,140.705C152.908,143.738 160.58,148.207 165.098,154.109C168.219,158.208 169.683,162.738 169.484,167.699C169.168,174.667 166.017,180.57 160.038,185.408C154.472,189.876 147.793,192.11 140.004,192.11C139.43,192.11 138.874,192.089 138.341,192.048Z" style="fill:white;fill-rule:nonzero;"/>
            <path d="M138.341,192.048C132.517,191.803 127.147,190.245 122.222,187.375C116.644,184.137 112.849,179.791 110.832,174.339L123.37,169.728C124.401,172.433 126.511,174.626 129.709,176.307C132.541,177.742 135.615,178.541 138.935,178.705C144.06,178.91 148.305,177.66 151.664,174.955C154.489,172.659 155.977,170.035 156.138,167.083C156.375,161.468 150.489,156.979 138.476,153.618C119.651,148.33 110.518,139.373 111.075,126.747C111.429,117.892 115.215,111.271 122.424,106.885C127.914,103.524 134.511,102.028 142.218,102.396C151.564,102.807 159.072,106.065 164.738,112.173L154.969,121.274C151.766,117.831 147.322,115.986 141.62,115.74C137.603,115.576 134.18,116.088 131.352,117.277C126.927,119.163 124.62,122.524 124.421,127.361C124.181,132.896 130.065,137.343 142.083,140.705C152.908,143.738 160.58,148.207 165.098,154.109C168.219,158.208 169.683,162.738 169.484,167.699C169.168,174.667 166.017,180.57 160.038,185.408C154.472,189.876 147.793,192.11 140.004,192.11C139.43,192.11 138.874,192.089 138.341,192.048Z" style="fill:none;stroke:white;stroke-width:6px;"/>
            <path d="M227.627,103.257L227.645,116.601L209.013,116.601L209.113,191.249L195.708,191.249L195.609,116.601L176.977,116.601L176.96,103.257L227.627,103.257Z" style="fill:white;fill-rule:nonzero;"/>
            <path d="M227.627,103.257L227.645,116.601L209.013,116.601L209.113,191.249L195.708,191.249L195.609,116.601L176.977,116.601L176.96,103.257L227.627,103.257Z" style="fill:none;stroke:white;stroke-width:6px;"/>
            <path d="M253.081,124.963C246.938,131.112 243.875,138.532 243.887,147.223C243.899,155.913 246.982,163.333 253.14,169.482C259.297,175.631 266.72,178.705 275.41,178.705C284.101,178.705 291.518,175.631 297.658,169.482C303.798,163.333 306.864,155.913 306.853,147.223C306.841,138.532 303.754,131.112 297.6,124.963C291.442,118.814 284.016,115.74 275.325,115.74C266.635,115.74 259.221,118.814 253.081,124.963ZM243.685,178.951C234.898,170.179 230.499,159.603 230.482,147.223C230.464,134.843 234.836,124.267 243.597,115.494C252.358,106.721 262.928,102.335 275.308,102.335C287.688,102.335 298.27,106.721 307.054,115.494C315.838,124.267 320.239,134.843 320.257,147.223C320.275,159.603 315.9,170.179 307.142,178.951C298.381,187.724 287.811,192.11 275.431,192.11C263.051,192.11 252.469,187.724 243.685,178.951Z" style="fill:white;fill-rule:nonzero;"/>
            <path d="M253.081,124.963C246.938,131.112 243.875,138.532 243.887,147.223C243.899,155.913 246.982,163.333 253.14,169.482C259.297,175.631 266.72,178.705 275.41,178.705C284.101,178.705 291.518,175.631 297.658,169.482C303.798,163.333 306.864,155.913 306.853,147.223C306.841,138.532 303.754,131.112 297.6,124.963C291.442,118.814 284.016,115.74 275.325,115.74C266.635,115.74 259.221,118.814 253.081,124.963ZM243.685,178.951C234.898,170.179 230.499,159.603 230.482,147.223C230.464,134.843 234.836,124.267 243.597,115.494C252.358,106.721 262.928,102.335 275.308,102.335C287.688,102.335 298.27,106.721 307.054,115.494C315.838,124.267 320.239,134.843 320.257,147.223C320.275,159.603 315.9,170.179 307.142,178.951C298.381,187.724 287.811,192.11 275.431,192.11C263.051,192.11 252.469,187.724 243.685,178.951Z" style="fill:none;stroke:white;stroke-width:6px;"/>
            <path d="M365.791,140.828C369.112,140.828 371.957,139.639 374.332,137.261C376.665,134.925 377.831,132.096 377.825,128.775C377.822,125.414 376.651,122.544 374.309,120.167C371.928,117.79 369.079,116.601 365.759,116.601L346.635,116.601L346.667,140.828L365.791,140.828ZM396.112,191.249L381.046,191.249L361.75,154.171L346.685,154.171L346.735,191.249L333.392,191.249L333.275,103.257L365.741,103.257C372.751,103.257 378.738,105.758 383.705,110.759C388.712,115.719 391.221,121.725 391.23,128.775C391.238,133.941 389.789,138.655 386.885,142.918C384.062,147.1 380.355,150.174 375.767,152.142L396.112,191.249Z" style="fill:white;fill-rule:nonzero;"/>
            <path d="M365.791,140.828C369.112,140.828 371.957,139.639 374.332,137.261C376.665,134.925 377.831,132.096 377.825,128.775C377.822,125.414 376.651,122.544 374.309,120.167C371.928,117.79 369.079,116.601 365.759,116.601L346.635,116.601L346.667,140.828L365.791,140.828ZM396.112,191.249L381.046,191.249L361.75,154.171L346.685,154.171L346.735,191.249L333.392,191.249L333.275,103.257L365.741,103.257C372.751,103.257 378.738,105.758 383.705,110.759C388.712,115.719 391.221,121.725 391.23,128.775C391.238,133.941 389.789,138.655 386.885,142.918C384.062,147.1 380.355,150.174 375.767,152.142L396.112,191.249Z" style="fill:none;stroke:white;stroke-width:6px;"/>
            <path d="M464.555,103.257L437.192,149.867L437.247,191.249L423.843,191.249L423.787,149.867L396.301,103.257L411.797,103.257L430.469,134.863L449.06,103.257L464.555,103.257Z" style="fill:white;fill-rule:nonzero;"/>
            <path d="M464.555,103.257L437.192,149.867L437.247,191.249L423.843,191.249L423.787,149.867L396.301,103.257L411.797,103.257L430.469,134.863L449.06,103.257L464.555,103.257Z" style="fill:none;stroke:white;stroke-width:6px;"/>
            <path d="M94.837,202.203L94.954,290.195L81.611,290.195L81.534,234.3L57.138,290.195L42.073,290.195L17.956,234.669L18.031,290.195L4.687,290.195L4.569,202.203L18.527,202.203L49.615,274.023L80.879,202.203L94.837,202.203Z" style="fill:white;fill-rule:nonzero;"/>
            <path d="M94.837,202.203L94.954,290.195L81.611,290.195L81.534,234.3L57.138,290.195L42.073,290.195L17.956,234.669L18.031,290.195L4.687,290.195L4.569,202.203L18.527,202.203L49.615,274.023L80.879,202.203L94.837,202.203Z" style="fill:none;stroke:white;stroke-width:6px;"/>
            <path d="M131.124,223.909C124.984,230.058 121.918,237.478 121.93,246.168C121.942,254.859 125.028,262.279 131.186,268.427C137.343,274.577 144.766,277.651 153.457,277.651C162.147,277.651 169.564,274.577 175.704,268.427C181.844,262.279 184.907,254.859 184.895,246.168C184.884,237.478 181.801,230.058 175.643,223.909C169.485,217.76 162.062,214.685 153.372,214.685C144.681,214.685 137.264,217.76 131.124,223.909ZM121.728,277.897C112.944,269.125 108.543,258.549 108.525,246.168C108.51,233.789 112.882,223.212 121.643,214.44C130.404,205.667 140.974,201.281 153.354,201.281C165.734,201.281 176.316,205.667 185.1,214.44C193.884,223.212 198.285,233.789 198.3,246.168C198.318,258.549 193.946,269.125 185.185,277.897C176.425,286.669 165.854,291.056 153.474,291.056C141.094,291.056 130.511,286.669 121.728,277.897Z" style="fill:white;fill-rule:nonzero;"/>
            <path d="M131.124,223.909C124.984,230.058 121.918,237.478 121.93,246.168C121.942,254.859 125.028,262.279 131.186,268.427C137.343,274.577 144.766,277.651 153.457,277.651C162.147,277.651 169.564,274.577 175.704,268.427C181.844,262.279 184.907,254.859 184.895,246.168C184.884,237.478 181.801,230.058 175.643,223.909C169.485,217.76 162.062,214.685 153.372,214.685C144.681,214.685 137.264,217.76 131.124,223.909ZM121.728,277.897C112.944,269.125 108.543,258.549 108.525,246.168C108.51,233.789 112.882,223.212 121.643,214.44C130.404,205.667 140.974,201.281 153.354,201.281C165.734,201.281 176.316,205.667 185.1,214.44C193.884,223.212 198.285,233.789 198.3,246.168C198.318,258.549 193.946,269.125 185.185,277.897C176.425,286.669 165.854,291.056 153.474,291.056C141.094,291.056 130.511,286.669 121.728,277.897Z" style="fill:none;stroke:white;stroke-width:6px;"/>
            <path d="M276.064,202.203L276.184,290.195L262.225,290.195L224.509,227.291L224.594,290.195L211.25,290.195L211.13,202.203L225.088,202.203L262.743,265.107L262.658,202.203L276.064,202.203Z" style="fill:white;fill-rule:nonzero;"/>
            <path d="M276.064,202.203L276.184,290.195L262.225,290.195L224.509,227.291L224.594,290.195L211.25,290.195L211.13,202.203L225.088,202.203L262.743,265.107L262.658,202.203L276.064,202.203Z" style="fill:none;stroke:white;stroke-width:6px;"/>
            <path d="M337.553,202.203L337.571,215.546L318.94,215.546L319.041,290.195L305.637,290.195L305.534,215.546L286.904,215.546L286.886,202.203L337.553,202.203Z" style="fill:white;fill-rule:nonzero;"/>
            <path d="M337.553,202.203L337.571,215.546L318.94,215.546L319.041,290.195L305.637,290.195L305.534,215.546L286.904,215.546L286.886,202.203L337.553,202.203Z" style="fill:none;stroke:white;stroke-width:6px;"/>
            <path d="M412.14,202.203L412.26,290.195L398.917,290.195L398.864,252.809L363.077,252.809L363.13,290.195L349.786,290.195L349.666,202.326L363.01,202.326L363.06,239.466L398.847,239.466L398.797,202.203L412.14,202.203Z" style="fill:white;fill-rule:nonzero;"/>
            <path d="M412.14,202.203L412.26,290.195L398.917,290.195L398.864,252.809L363.077,252.809L363.13,290.195L349.786,290.195L349.666,202.326L363.01,202.326L363.06,239.466L398.847,239.466L398.797,202.203L412.14,202.203Z" style="fill:none;stroke:white;stroke-width:6px;"/>
            <path d="M17.874,375.797L36.997,375.797C40.318,375.797 43.165,374.609 45.54,372.231C47.873,369.853 49.037,366.984 49.033,363.623C49.029,360.302 47.856,357.473 45.516,355.137C43.136,352.759 40.285,351.571 36.965,351.571L17.842,351.571L17.874,375.797ZM17.824,338.227L32.09,338.227C35.369,338.227 38.154,337.059 40.446,334.722C42.78,332.426 43.945,329.639 43.941,326.36C43.936,323.081 42.764,320.292 40.424,317.997C38.124,315.661 35.337,314.492 32.057,314.492L17.792,314.492L17.824,338.227ZM4.548,389.14L4.429,301.149L32.038,301.149C39.007,301.149 44.955,303.608 49.881,308.528C54.807,313.488 57.274,319.432 57.284,326.36C57.291,332.549 55.309,337.981 51.342,342.655C54.747,344.991 57.414,347.984 59.347,351.632C61.401,355.362 62.432,359.359 62.438,363.623C62.447,370.673 59.954,376.678 54.961,381.639C50.007,386.64 44.024,389.14 37.014,389.14L4.548,389.14Z" style="fill:white;fill-rule:nonzero;"/>
            <path d="M17.874,375.797L36.997,375.797C40.318,375.797 43.165,374.609 45.54,372.231C47.873,369.853 49.037,366.984 49.033,363.623C49.029,360.302 47.856,357.473 45.516,355.137C43.136,352.759 40.285,351.571 36.965,351.571L17.842,351.571L17.874,375.797ZM17.824,338.227L32.09,338.227C35.369,338.227 38.154,337.059 40.446,334.722C42.78,332.426 43.945,329.639 43.941,326.36C43.936,323.081 42.764,320.292 40.424,317.997C38.124,315.661 35.337,314.492 32.057,314.492L17.792,314.492L17.824,338.227ZM4.548,389.14L4.429,301.149L32.038,301.149C39.007,301.149 44.955,303.608 49.881,308.528C54.807,313.488 57.274,319.432 57.284,326.36C57.291,332.549 55.309,337.981 51.342,342.655C54.747,344.991 57.414,347.984 59.347,351.632C61.401,355.362 62.432,359.359 62.438,363.623C62.447,370.673 59.954,376.678 54.961,381.639C50.007,386.64 44.024,389.14 37.014,389.14L4.548,389.14Z" style="fill:none;stroke:white;stroke-width:6px;"/>
            <path d="M117.881,301.149L117.899,314.492L86.351,314.492L86.384,338.35L110.734,338.35L110.751,351.693L86.404,351.693L86.436,375.797L117.981,375.797L117.998,389.14L73.111,389.14L72.99,301.149L117.881,301.149Z" style="fill:white;fill-rule:nonzero;"/>
            <path d="M117.881,301.149L117.899,314.492L86.351,314.492L86.384,338.35L110.734,338.35L110.751,351.693L86.404,351.693L86.436,375.797L117.981,375.797L117.998,389.14L73.111,389.14L72.99,301.149L117.881,301.149Z" style="fill:none;stroke:white;stroke-width:6px;"/>
            <path d="M145.343,301.149L145.443,375.797L176.987,375.797L177.004,389.14L132.117,389.14L132,301.149L145.343,301.149Z" style="fill:white;fill-rule:nonzero;"/>
            <path d="M145.343,301.149L145.443,375.797L176.987,375.797L177.004,389.14L132.117,389.14L132,301.149L145.343,301.149Z" style="fill:none;stroke:white;stroke-width:6px;"/>
            <path d="M193.14,376.842C184.356,368.07 179.955,357.494 179.937,345.114C179.92,332.734 184.291,322.158 193.052,313.385C201.813,304.613 212.384,300.226 224.763,300.226C230.871,300.226 236.696,301.395 242.233,303.731L237.085,316.09C233.147,314.41 229.044,313.57 224.78,313.57C216.091,313.57 208.676,316.665 202.536,322.855C196.396,329.003 193.33,336.423 193.342,345.114C193.354,353.804 196.437,361.224 202.595,367.374C208.753,373.522 216.176,376.596 224.865,376.596C227.695,376.596 230.441,376.249 233.106,375.551L233.073,351.571L218.808,351.571L218.79,338.166L246.46,338.166L246.522,384.713L242.466,386.435C236.854,388.813 230.994,390.001 224.886,390.001C212.507,390.001 201.925,385.615 193.14,376.842Z" style="fill:white;fill-rule:nonzero;"/>
            <path d="M193.14,376.842C184.356,368.07 179.955,357.494 179.937,345.114C179.92,332.734 184.291,322.158 193.052,313.385C201.813,304.613 212.384,300.226 224.763,300.226C230.871,300.226 236.696,301.395 242.233,303.731L237.085,316.09C233.147,314.41 229.044,313.57 224.78,313.57C216.091,313.57 208.676,316.665 202.536,322.855C196.396,329.003 193.33,336.423 193.342,345.114C193.354,353.804 196.437,361.224 202.595,367.374C208.753,373.522 216.176,376.596 224.865,376.596C227.695,376.596 230.441,376.249 233.106,375.551L233.073,351.571L218.808,351.571L218.79,338.166L246.46,338.166L246.522,384.713L242.466,386.435C236.854,388.813 230.994,390.001 224.886,390.001C212.507,390.001 201.925,385.615 193.14,376.842Z" style="fill:none;stroke:white;stroke-width:6px;"/>
            <path d="M273.746,389.14L260.403,389.14L260.286,301.272L273.629,301.272L273.746,389.14Z" style="fill:white;fill-rule:nonzero;"/>
            <path d="M273.746,389.14L260.403,389.14L260.286,301.272L273.629,301.272L273.746,389.14Z" style="fill:none;stroke:white;stroke-width:6px;"/>
            <path d="M296.435,380.778C290.322,374.67 287.255,367.292 287.243,358.642L287.167,301.087L300.572,301.087L300.649,358.642C300.655,363.602 302.403,367.824 305.893,371.308C309.424,374.834 313.647,376.596 318.566,376.596C323.526,376.596 327.748,374.834 331.227,371.308C334.746,367.824 336.503,363.602 336.497,358.642L336.421,301.087L349.825,301.087L349.902,358.642C349.913,367.292 346.851,374.67 340.707,380.778C334.609,386.886 327.236,389.94 318.586,389.94C309.978,389.94 302.593,386.886 296.435,380.778Z" style="fill:white;fill-rule:nonzero;"/>
            <path d="M296.435,380.778C290.322,374.67 287.255,367.292 287.243,358.642L287.167,301.087L300.572,301.087L300.649,358.642C300.655,363.602 302.403,367.824 305.893,371.308C309.424,374.834 313.647,376.596 318.566,376.596C323.526,376.596 327.748,374.834 331.227,371.308C334.746,367.824 336.503,363.602 336.497,358.642L336.421,301.087L349.825,301.087L349.902,358.642C349.913,367.292 346.851,374.67 340.707,380.778C334.609,386.886 327.236,389.94 318.586,389.94C309.978,389.94 302.593,386.886 296.435,380.778Z" style="fill:none;stroke:white;stroke-width:6px;"/>
            <path d="M454.245,301.149L454.363,389.14L441.02,389.14L440.947,333.247L416.547,389.14L401.482,389.14L377.366,333.616L377.44,389.14L364.096,389.14L363.979,301.149L377.937,301.149L409.025,372.969L440.287,301.149L454.245,301.149Z" style="fill:white;fill-rule:nonzero;"/>
            <path d="M454.245,301.149L454.363,389.14L441.02,389.14L440.947,333.247L416.547,389.14L401.482,389.14L377.366,333.616L377.44,389.14L364.096,389.14L363.979,301.149L377.937,301.149L409.025,372.969L440.287,301.149L454.245,301.149Z" style="fill:none;stroke:white;stroke-width:6px;"/>
        </g>
    </g>
</svg>
